<svg xmlns="http://www.w3.org/2000/svg" viewBox="0 0 720 440" font-family="'Coming Soon','Comic Neue','Comic Sans MS',cursive">
  <!-- For the next editor. XKCD style on purpose (the user asked for less-serious).
       This is the INTUITION figure for the README body. Message: contrastive weight
       steering trains ONE low-rank direction. The (cho>rej) pole and the (rej>cho)
       pole would fight, so we flip one pole's pairs; then both pull the SAME direction
       d, and at inference the signed dial c slides the model along that one line.
       The precise vector geometry (why the flip makes the two gradients reinforce)
       lives in docs/steering_geometry.svg, shown in the README appendix. Do NOT
       feature PCGrad. Font is 'Coming Soon' (xkcd substitute, installed).
       markerUnits=userSpaceOnUse so the head does not scale with stroke. Render with
       cairosvg and eyeball before shipping. -->
  <defs>
    <marker id="head" markerUnits="userSpaceOnUse" markerWidth="16" markerHeight="14" refX="11" refY="6" orient="auto">
      <path d="M0,0 L13,6 L0,12 Z" fill="#2a7f7f"/>
    </marker>
  </defs>

  <!-- title -->
  <text x="360" y="38" text-anchor="middle" font-size="21" fill="#222">two contrastive teams pulling one rope the SAME way</text>

  <!-- the model: a friendly log being rolled along d -->
  <text x="162" y="210" text-anchor="middle" font-size="12" fill="#555">c = 0 : base model, untouched</text>
  <rect x="95" y="224" width="135" height="28" rx="14" fill="#c9a86a" stroke="#7d6433" stroke-width="2"/>
  <circle cx="118" cy="235" r="2.4" fill="#3a2f18"/>
  <circle cx="134" cy="235" r="2.4" fill="#3a2f18"/>
  <path d="M115,242 Q126,249 137,242" stroke="#3a2f18" stroke-width="1.6" fill="none" stroke-linecap="round"/>

  <!-- the one direction d (the rope the teams pull) -->
  <path d="M230,238 C 320,235 400,241 462,238" stroke="#2a7f7f" stroke-width="5" fill="none" stroke-linecap="round" marker-end="url(#head)"/>
  <text x="318" y="282" text-anchor="middle" font-size="16" fill="#2a7f7f">the one direction d</text>
  <text x="318" y="301" text-anchor="middle" font-size="12" fill="#2a7f7f">(one low-rank adapter)</text>

  <!-- top puller: +c team, grips the rope and pulls right -->
  <circle cx="508" cy="200" r="11" fill="none" stroke="#222" stroke-width="2.4"/>
  <path d="M508,211 L508,240" stroke="#222" stroke-width="2.4" fill="none" stroke-linecap="round"/>
  <path d="M508,217 L470,233 M508,217 L522,224" stroke="#222" stroke-width="2.4" fill="none" stroke-linecap="round"/>
  <path d="M508,240 L496,268 M508,240 L520,268" stroke="#222" stroke-width="2.4" fill="none" stroke-linecap="round"/>
  <text x="592" y="150" text-anchor="middle" font-size="15" fill="#222">+c team</text>
  <text x="592" y="168" text-anchor="middle" font-size="13" fill="#555">cho &gt; rej</text>

  <!-- bottom puller: -c team, rope flipped, also pulls right -->
  <circle cx="508" cy="300" r="11" fill="none" stroke="#222" stroke-width="2.4"/>
  <path d="M508,311 L508,340" stroke="#222" stroke-width="2.4" fill="none" stroke-linecap="round"/>
  <path d="M508,316 L470,243 M508,316 L522,310" stroke="#222" stroke-width="2.4" fill="none" stroke-linecap="round"/>
  <path d="M508,340 L496,366 M508,340 L520,366" stroke="#222" stroke-width="2.4" fill="none" stroke-linecap="round"/>
  <text x="592" y="312" text-anchor="middle" font-size="15" fill="#222">-c team</text>
  <text x="592" y="330" text-anchor="middle" font-size="13" fill="#555">rej &gt; cho,</text>
  <text x="592" y="346" text-anchor="middle" font-size="13" fill="#555">rope flipped</text>

  <!-- caption -->
  <text x="360" y="404" text-anchor="middle" font-size="14" fill="#444">flip one team's rope and they pull together, not against each other.</text>
  <text x="360" y="424" text-anchor="middle" font-size="14" fill="#444">then the dial c slides the model along that one line: +c one way, -c the other.</text>
</svg>
